<svg width="24" height="24" viewBox="0 0 24 24" fill="none" xmlns="http://www.w3.org/2000/svg">
<g clip-path="url(#clip0)">
<path d="M23.9859 4.66721C23.9017 2.8118 23.4728 1.33066 23.4549 1.26932C23.3535 0.921603 23.0856 0.65317 22.7388 0.551363C22.6765 0.53287 21.1915 0.101107 19.3453 0.0154135C18.2357 -0.0364053 17.2196 0.0480063 16.325 0.265719C15.1373 0.554659 14.1577 1.07981 13.413 1.82633C12.3228 2.91947 11.7473 4.47971 11.8343 6.10733C11.8731 6.83298 12.0511 7.53427 12.3942 8.31412C12.7196 9.0535 13.1724 9.71707 13.7401 10.2862C14.3079 10.8554 14.9696 11.3092 15.707 11.6349C16.4075 11.9444 17.4727 12.1242 18.2664 12.1659C19.7897 12.1659 21.1683 11.6192 22.177 10.6077C22.9213 9.86173 23.445 8.88046 23.7339 7.69156C23.9515 6.79599 24.0363 5.77848 23.9859 4.66721ZM17.4778 10.6994C17.0576 10.635 16.6606 10.5189 16.2755 10.3488C15.6982 10.0937 15.18 9.7385 14.7358 9.29318C14.2914 8.84751 13.9365 8.32749 13.6815 7.74777C13.4936 7.32096 13.3683 6.92929 13.299 6.54679C14.4573 6.27011 15.6877 6.60813 16.5483 7.47092C17.3974 8.32218 17.7385 9.5466 17.4778 10.6994ZM22.3674 7.35959C22.1402 8.29489 21.7412 9.05368 21.1815 9.6149C20.5814 10.2164 19.7935 10.5941 18.9062 10.7163C19.1548 9.18643 18.6643 7.60111 17.5439 6.47794C16.4097 5.34067 14.818 4.85196 13.2814 5.11545C13.413 4.23288 13.804 3.42575 14.4088 2.81949C14.9681 2.25864 15.7247 1.8591 16.6575 1.63205C17.2731 1.48227 17.9652 1.40683 18.7213 1.40683C18.9038 1.40683 19.0902 1.41123 19.2801 1.42002C20.6142 1.48209 21.7262 1.73844 22.1548 1.8494C22.2642 2.2786 22.5209 3.40525 22.5811 4.73075C22.6254 5.7089 22.5537 6.59348 22.3674 7.35959Z" fill="#77B122"/>
<path d="M10.6153 13.6561C9.86875 12.9127 8.88693 12.3894 7.69693 12.1008C6.80081 11.8835 5.78238 11.799 4.67038 11.849C2.81662 11.9331 1.33182 12.3617 1.2703 12.3797C0.922395 12.4808 0.653779 12.7485 0.551606 13.0954C0.533296 13.1577 0.100984 14.643 0.0152902 16.4864C-0.0365286 17.5951 0.047883 18.6106 0.265779 19.5045C0.555085 20.6912 1.08078 21.6703 1.82803 22.4144C2.84958 23.4316 4.27872 24.0001 5.78952 24.0001C6.52908 24.0008 7.53946 23.7751 8.31986 23.4323C9.05979 23.1073 9.72373 22.655 10.2934 22.0876C10.8632 21.5203 11.3175 20.8591 11.6438 20.1221C11.9534 19.4221 12.1242 18.6963 12.1662 17.9032C12.2531 16.2469 11.7025 14.7386 10.6153 13.6561ZM10.3576 19.553C10.1024 20.1298 9.7468 20.6474 9.30112 21.0911C8.85489 21.5355 8.33451 21.8898 7.75424 22.1447C7.32651 22.3327 6.9343 22.4578 6.55106 22.5272C6.27438 21.3703 6.61258 20.1413 7.47574 19.2818C8.32791 18.4331 9.5538 18.0922 10.7083 18.3531C10.6436 18.7724 10.5277 19.1687 10.3576 19.553ZM6.48349 18.2854C5.34531 19.4186 4.85587 21.0089 5.11954 22.5446C4.23569 22.4131 3.42728 22.0226 2.82028 21.4179C2.25888 20.8591 1.85916 20.1032 1.63211 19.1716C1.44589 18.4079 1.37448 17.5264 1.41989 16.5517C1.48197 15.2202 1.7385 14.1086 1.84946 13.6801C2.27957 13.5708 3.40897 13.3139 4.7341 13.254C5.71317 13.2095 6.59848 13.2815 7.36551 13.4675C8.30173 13.6946 9.06125 14.0934 9.62302 14.6526C10.2249 15.2519 10.6028 16.0387 10.7251 16.9245C9.19419 16.6761 7.60758 17.1661 6.48349 18.2854Z" fill="#77B122"/>
</g>
<defs>
<clipPath id="clip0">
<rect width="24" height="24" fill="white"/>
</clipPath>
</defs>
</svg>
