<svg width="24" height="24" viewBox="0 0 24 24" fill="none" xmlns="http://www.w3.org/2000/svg">
<path d="M22.2187 21.15C21.9187 20.6437 21.3562 20.3625 20.775 20.3812C20.3062 19.875 19.5375 19.7437 18.9375 20.0812C18.4687 19.9312 17.9437 20.025 17.5312 20.3062L17.4 16.1625L19.7437 13.875C21.075 14.1375 22.3687 13.275 22.6312 11.9437C22.6687 11.7937 22.6875 11.5125 22.6687 11.325C23.3625 10.4437 23.2125 9.16874 22.3312 8.47499C22.05 8.24999 21.7312 8.11874 21.3937 8.06249C21.3187 7.59374 21.1125 7.16249 20.7562 6.82499C20.7562 6.76874 20.7562 6.69374 20.7562 6.63749C20.7562 4.85624 19.3125 3.43124 17.5312 3.41249C16.95 2.34374 15.8437 1.68749 14.6437 1.68749C14.2687 1.68749 13.8937 1.74374 13.5562 1.87499C12.45 0.637493 10.5562 0.524993 9.31874 1.63124C9.16874 1.76249 9.03749 1.91249 8.90624 2.08124C8.81249 2.06249 8.71874 2.06249 8.64374 2.06249C7.33124 2.06249 6.22499 3.03749 6.05624 4.34999C4.98749 4.48124 4.12499 5.30624 3.93749 6.37499C3.20624 6.65624 2.69999 7.29374 2.58749 8.06249C1.49999 8.24999 0.749987 9.28124 0.918737 10.3875C0.974987 10.725 1.10624 11.0625 1.33124 11.325C1.27499 12.225 1.76249 13.0687 2.41874 13.5187C2.81249 13.7812 3.59999 14.0437 4.25624 13.875L6.61874 16.1625L6.46874 20.5687C6.20624 20.4187 5.90624 20.3625 5.62499 20.3625C5.23124 19.7625 4.36874 19.65 3.78749 20.0625C2.94374 19.8 2.04374 20.2875 1.78124 21.15C1.23749 21.5062 0.899987 22.125 0.899987 22.7812C0.899987 22.9687 1.04999 23.1 1.23749 23.1187H22.8C22.9875 23.1187 23.1375 22.9687 23.1375 22.7812C23.1 22.125 22.7625 21.5062 22.2187 21.15ZM16.8187 15.8062C16.7437 15.8625 16.725 15.9562 16.725 16.05L16.8937 21.1687C16.6687 21.3187 16.4625 21.525 16.3125 21.7687L16.4625 17.2875C16.4625 17.1937 16.425 17.1187 16.3687 17.0437L14.1187 14.775L14.2875 14.6062L15.9375 16.275C16.0687 16.4062 16.275 16.4062 16.4062 16.275C16.4625 16.2187 16.5 16.1437 16.5 16.05L16.5937 12.9375H16.6312L16.6875 14.8125C16.6875 15 16.8375 15.1312 17.025 15.1312C17.1 15.1312 17.1937 15.0937 17.25 15.0375L18.8625 13.4812C18.9375 13.5187 18.9937 13.575 19.0687 13.6125L16.8187 15.8062ZM12.9187 16.0125L13.6687 15.2625L15.8062 17.4187L15.6375 22.4625H13.1437L12.9187 16.0125ZM15.9187 13.5562L15.8625 15.2625L14.775 14.1562C15.2062 14.0812 15.6 13.875 15.9187 13.5562ZM17.2875 12.9375C17.5687 12.9 17.8312 12.8062 18.075 12.675C18.15 12.8062 18.2437 12.9375 18.3562 13.0687L17.325 14.0625L17.2875 12.9375ZM20.7562 8.38124C20.7562 8.56874 20.9062 8.71874 21.0937 8.71874C21.8437 8.71874 22.4625 9.33749 22.4625 10.0875C22.4625 10.425 22.3312 10.7625 22.1062 11.0062C22.05 11.0812 22.0125 11.175 22.0312 11.2687C22.0312 11.3437 22.05 11.4 22.05 11.475C22.05 12.4687 21.2437 13.275 20.25 13.275C19.8187 13.275 19.3875 13.125 19.0687 12.825C18.8437 12.6187 18.6562 12.375 18.5625 12.075C18.4875 11.85 18.2437 11.775 18.0562 11.925C17.6625 12.225 17.0625 12.4125 16.6312 12.2812L16.8937 12.0187C16.95 12.0187 17.1187 12.0187 17.1937 12C18.4312 11.8687 19.3312 10.7437 19.1812 9.50624C19.1812 9.48749 19.1812 9.44999 19.1625 9.43124C19.8375 9.03749 20.3437 8.41874 20.6062 7.68749C20.7 7.91249 20.7562 8.13749 20.7562 8.38124ZM6.39374 5.00624C6.58124 5.00624 6.71249 4.85624 6.73124 4.66874C6.73124 3.59999 7.59374 2.73749 8.66249 2.71874C8.79374 2.71874 8.90624 2.73749 9.03749 2.75624C9.16874 2.77499 9.29999 2.71874 9.37499 2.60624C10.0687 1.51874 11.5125 1.19999 12.6187 1.89374C12.8625 2.04374 13.0687 2.23124 13.2375 2.45624C13.3312 2.56874 13.5 2.62499 13.6312 2.54999C14.9437 1.96874 16.5 2.54999 17.0812 3.88124C17.1375 4.01249 17.2687 4.08749 17.4 4.06874H17.5687C18.975 4.06874 20.1375 5.21249 20.1375 6.61874C20.1375 7.61249 19.5562 8.51249 18.6562 8.94374C18.5062 9.01874 18.4312 9.16874 18.4875 9.31874C18.7125 10.1625 18.225 11.0437 17.3625 11.2687C16.95 11.3812 16.5187 11.325 16.1625 11.1187C16.0687 11.0625 15.975 11.0625 15.8812 11.1C14.625 11.5687 13.2562 10.9312 12.825 9.73124C12.7687 9.56249 12.5812 9.48749 12.4125 9.54374C11.6625 9.80624 10.8375 9.65624 10.2187 9.16874C10.0687 9.05624 9.80624 9.05624 9.71249 9.31874C9.26249 10.5375 7.93124 11.175 6.71249 10.7437C5.68124 10.3687 5.02499 9.33749 5.17499 8.24999C5.19374 8.15624 5.15624 8.06249 5.09999 7.98749C4.42499 7.25624 4.48124 6.11249 5.21249 5.43749C5.49374 5.17499 5.94374 5.00624 6.39374 5.00624ZM14.475 11.9062L12.8625 13.5375L12.7875 10.9875C13.2187 11.475 13.8187 11.7937 14.475 11.9062ZM11.2312 10.3312L11.175 12.0187L9.67499 10.575C9.84374 10.3875 9.99374 10.1812 10.1062 9.95624C10.4625 10.1625 10.8375 10.2937 11.2312 10.3312ZM1.96874 11.475C1.96874 11.4 1.96874 11.3437 1.98749 11.2687C2.00624 11.175 1.96874 11.0812 1.91249 11.0062C1.40624 10.4437 1.44374 9.58124 2.00624 9.07499C2.24999 8.84999 2.58749 8.71874 2.92499 8.71874C3.11249 8.71874 3.26249 8.56874 3.26249 8.38124C3.26249 7.87499 3.52499 7.40624 3.95624 7.12499C4.01249 7.57499 4.19999 8.00624 4.48124 8.36249V8.56874C4.48124 10.2187 5.83124 11.5687 7.48124 11.5687C7.68749 11.5687 7.89374 11.55 8.09999 11.4937L10.2 13.5187C9.14999 13.7625 8.36249 13.1062 8.09999 12.3937C8.04374 12.225 7.85624 12.15 7.68749 12.2062C7.10624 12.3937 6.48749 12.3 5.99999 11.925C5.84999 11.8125 5.64374 11.8312 5.53124 11.9812C5.51249 12 5.49374 12.0375 5.47499 12.075C5.13749 13.0125 4.10624 13.5 3.16874 13.1625C2.45624 12.9 1.96874 12.225 1.96874 11.475ZM8.19374 17.4187L11.1187 14.4562L10.8562 22.4625H8.36249L8.19374 17.4187ZM9.20624 14.175L8.11874 15.2812L8.06249 13.575C8.39999 13.8562 8.79374 14.0812 9.20624 14.175ZM6.71249 12.9375L6.67499 14.0625L5.64374 13.05C5.75624 12.9375 5.83124 12.8062 5.92499 12.6562C6.16874 12.8062 6.43124 12.9 6.71249 12.9375ZM4.93124 13.6312C5.00624 13.5937 5.08124 13.5562 5.13749 13.5L6.74999 15.0562C6.88124 15.1875 7.08749 15.1875 7.21874 15.0562C7.27499 15 7.31249 14.925 7.31249 14.8312L7.36874 12.9562H7.40624L7.49999 16.05C7.49999 16.2375 7.64999 16.3687 7.83749 16.3687C7.91249 16.3687 8.00624 16.3312 8.06249 16.275L10.1062 14.2125C10.2562 14.1937 10.3875 14.1562 10.5187 14.1187L7.63124 17.0625C7.57499 17.1187 7.53749 17.2125 7.53749 17.3062L7.68749 21.7875C7.53749 21.5437 7.34999 21.3375 7.10624 21.1875L7.27499 16.05C7.27499 15.9562 7.23749 15.8625 7.18124 15.8062L4.93124 13.6312ZM6.73124 22.4625H1.59374C1.68749 22.125 1.91249 21.8437 2.21249 21.675C2.30624 21.6375 2.36249 21.5437 2.38124 21.45C2.49374 20.8687 3.13124 20.5312 3.69374 20.7562C3.80624 20.7937 3.91874 20.7937 4.01249 20.7187C4.44374 20.4 4.94999 20.5312 5.21249 20.925C5.28749 21.0375 5.41874 21.075 5.53124 21.0562C5.94374 20.9812 6.33749 21.1875 6.54374 21.5437C6.58124 21.6 6.61874 21.6375 6.67499 21.675C6.97499 21.8437 7.19999 22.125 7.27499 22.4625H6.73124ZM11.5125 22.4625L11.775 14.325C11.775 14.2312 11.7375 14.1375 11.6812 14.0812L8.77499 11.25C8.92499 11.175 9.05624 11.1 9.18749 11.0062L11.25 13.0125C11.3812 13.1437 11.5875 13.1437 11.7187 13.0125C11.775 12.9562 11.8125 12.8812 11.8125 12.7875L11.8875 10.35C11.9625 10.35 12.0187 10.3312 12.0937 10.3312L12.2062 14.3437C12.2062 14.5312 12.3562 14.6625 12.5437 14.6625C12.6187 14.6625 12.7125 14.625 12.7687 14.5687L15.3562 11.9437C15.5437 11.925 15.75 11.8687 15.9187 11.8125C15.975 11.8312 16.0125 11.85 16.0687 11.8687L14.0625 13.9125L12.3562 15.6375C12.3 15.6937 12.2625 15.7875 12.2625 15.8812L12.4875 22.4437H11.5125V22.4625ZM16.725 22.4625C16.8187 22.125 17.0437 21.8437 17.3437 21.675C17.4375 21.6375 17.4937 21.5437 17.5125 21.45C17.625 20.8875 18.1687 20.4937 18.825 20.7562C18.9375 20.7937 19.05 20.7937 19.1437 20.7187C19.5 20.4562 20.0812 20.55 20.3437 20.925C20.4187 21.0375 20.55 21.075 20.6625 21.0562C21.075 20.9812 21.4687 21.1875 21.675 21.5437C21.7125 21.6 21.75 21.6375 21.8062 21.675C22.1062 21.8437 22.3312 22.125 22.4062 22.4625H16.725Z" fill="#77B122"/>
<path d="M18.2998 8.58745C18.3561 8.58745 18.3936 8.5687 18.4311 8.54995C19.3873 8.09995 19.8561 7.01245 19.5373 5.99995C19.4811 5.8312 19.2936 5.73745 19.1248 5.7937C18.9561 5.84995 18.8623 6.03745 18.9186 6.2062C19.1436 6.89995 18.8248 7.64995 18.1498 7.94995C17.9811 8.02495 17.9061 8.2312 17.9998 8.3812C18.0561 8.51245 18.1686 8.58745 18.2998 8.58745Z" fill="#77B122"/>
</svg>
