<svg width="24" height="24" viewBox="0 0 24 24" fill="none" xmlns="http://www.w3.org/2000/svg">
<path d="M20.8202 6.31885C20.7616 6.27547 20.6902 6.25285 20.6174 6.25455C20.5445 6.25624 20.4743 6.28217 20.4178 6.32822C20.2745 6.42217 20.1097 6.47793 19.9388 6.49021C19.768 6.50248 19.5968 6.47086 19.4417 6.39835C19.1453 6.26706 18.812 6.24514 18.501 6.33647C18.6463 6.11235 18.8592 5.9403 19.1088 5.84522C19.1497 5.83082 19.1873 5.80847 19.2195 5.77946C19.2516 5.75045 19.2777 5.71536 19.2963 5.67621C19.3148 5.63706 19.3254 5.59463 19.3275 5.55136C19.3295 5.50809 19.323 5.46484 19.3083 5.42411C19.2935 5.38337 19.2709 5.34596 19.2416 5.31403C19.2123 5.2821 19.177 5.25628 19.1377 5.23807C19.0984 5.21985 19.0559 5.20959 19.0126 5.20789C18.9693 5.20619 18.9261 5.21308 18.8855 5.22816C18.1275 5.50228 17.7215 6.17128 17.5297 6.95128C17.368 6.757 17.1686 6.59747 16.9436 6.48233C16.7186 6.36719 16.4726 6.29882 16.2204 6.28135C15.9378 6.26625 15.6641 6.17778 15.4262 6.02466C15.1882 5.87155 14.9943 5.65906 14.8635 5.40816C14.8351 5.3412 14.7853 5.28557 14.7219 5.25001C14.6584 5.21445 14.585 5.20098 14.5131 5.21171C14.4412 5.22244 14.3749 5.25678 14.3246 5.30931C14.2743 5.36184 14.2429 5.42959 14.2353 5.50191C14.1041 6.7456 14.3687 7.6936 15.0228 8.31947C15.725 8.99128 16.6916 9.10697 17.2711 9.10697C17.3289 9.10697 17.3818 9.10566 17.4311 9.10378C17.4609 9.38516 17.5068 9.66461 17.5683 9.94078C17.6866 10.4613 17.5742 10.835 17.267 10.9403C17.2098 10.9619 17.1487 10.9708 17.0877 10.9666C17.0268 10.9624 16.9674 10.945 16.9138 10.9158C16.8786 10.8643 16.8399 10.8154 16.7981 10.7692C16.0439 9.98028 15.1467 9.34178 14.1543 8.8876C14.1241 8.86647 14.0905 8.85074 14.055 8.8411C13.1102 8.40128 12.0856 8.15884 11.0439 8.1286C10.3525 8.11619 9.66455 8.22894 9.01328 8.46141C8.98333 8.46823 8.95449 8.47922 8.92759 8.49403C8.16434 8.78572 7.47442 9.24138 6.90653 9.82885C5.97378 10.7931 4.9074 11.6184 3.74003 12.2795C3.44915 12.4404 3.22871 12.704 3.12178 13.0187C3.01485 13.3335 3.02911 13.6768 3.16178 13.9816C4.1799 16.234 6.43646 18.7919 9.50809 18.7917C9.6114 18.7917 9.71584 18.7889 9.82084 18.7829C14.0563 18.5452 15.1715 16.1896 15.8844 14.0002C16.0758 13.4118 16.3295 12.9867 16.6381 12.737C16.7845 12.6189 16.9052 12.4723 16.993 12.306C17.0807 12.1397 17.1336 11.9573 17.1483 11.7698C17.1518 11.7199 17.1525 11.6698 17.1504 11.6198C17.2626 11.6168 17.3737 11.5971 17.48 11.5613C17.9863 11.3873 18.4438 10.8322 18.2079 9.79528C18.1206 9.39942 18.0678 8.99672 18.0502 8.59172C18.0502 8.5051 18.0491 8.41866 18.0429 8.33241C18.0429 8.23603 18.0429 8.13985 18.047 8.04385C18.349 8.18035 18.6757 8.25379 19.007 8.25966C19.1707 8.26013 19.3337 8.23837 19.4915 8.19497C20.1136 8.02191 20.5978 7.52147 20.9289 6.70735C20.9566 6.63973 20.961 6.56479 20.9413 6.49441C20.9216 6.42403 20.879 6.36224 20.8202 6.31885ZM16.2253 12.2266C15.8163 12.5575 15.4918 13.0859 15.2604 13.7969C14.7016 15.5129 13.9329 17.2066 11.5188 17.8615C11.8245 17.2012 12.1151 16.1382 11.5938 15.0303C11.5567 14.9516 11.4899 14.8909 11.4081 14.8615C11.3262 14.8321 11.2361 14.8363 11.1574 14.8733C11.0787 14.9104 11.0179 14.9771 10.9884 15.0589C10.9589 15.1407 10.9631 15.2309 11 15.3097C11.5625 16.5037 10.8971 17.6909 10.673 18.0367C10.3946 18.0783 10.0998 18.1096 9.78409 18.1274C9.69165 18.1325 9.60053 18.1351 9.50959 18.1351C8.34023 18.1176 7.20993 17.7115 6.29678 16.9808C6.65672 16.5691 6.8986 16.0676 6.9968 15.5296C7.095 14.9916 7.04586 14.437 6.85459 13.9246C6.82664 13.8422 6.7671 13.7742 6.68905 13.7357C6.61101 13.6972 6.52086 13.6912 6.43843 13.7192C6.35601 13.7471 6.28806 13.8067 6.24954 13.8847C6.21102 13.9628 6.20508 14.0529 6.23303 14.1353C6.386 14.5414 6.42602 14.9814 6.34883 15.4084C6.27163 15.8354 6.08011 16.2335 5.79465 16.5603C4.93557 15.7537 4.24411 14.7855 3.7599 13.7112C3.69403 13.5565 3.68827 13.3828 3.74376 13.224C3.79925 13.0653 3.91199 12.933 4.0599 12.853C5.28244 12.1609 6.39927 11.2968 7.37621 10.2873C7.81878 9.82673 8.34596 9.45578 8.9289 9.19472C9.04347 9.45159 9.10566 9.72872 9.11184 10.0099C9.11802 10.2911 9.06807 10.5707 8.9649 10.8323C8.94783 10.8724 8.93891 10.9155 8.93866 10.9591C8.93842 11.0027 8.94685 11.0458 8.96348 11.0861C8.9801 11.1264 9.00458 11.163 9.03548 11.1937C9.06639 11.2244 9.1031 11.2486 9.14348 11.265C9.18386 11.2814 9.22709 11.2895 9.27066 11.289C9.31423 11.2885 9.35726 11.2793 9.39724 11.262C9.43722 11.2447 9.47335 11.2196 9.50352 11.1881C9.53369 11.1567 9.5573 11.1196 9.57296 11.0789C9.84246 10.4007 9.83261 9.64347 9.54559 8.97253C10.0023 8.8448 10.4744 8.781 10.9487 8.78297H11.0343C11.9726 8.80982 12.8958 9.02535 13.749 9.41672C14.0074 9.82503 14.1583 10.2921 14.1876 10.7744C14.2169 11.2567 14.1237 11.7386 13.9166 12.1752C13.8979 12.214 13.887 12.2562 13.8846 12.2992C13.8822 12.3422 13.8883 12.3852 13.9026 12.4259C13.9168 12.4666 13.9389 12.504 13.9676 12.5361C13.9964 12.5682 14.0311 12.5944 14.07 12.613C14.1142 12.6346 14.1628 12.6458 14.2121 12.6457C14.2739 12.6457 14.3345 12.6282 14.3868 12.5954C14.4391 12.5625 14.4811 12.5155 14.508 12.4598C14.8974 11.665 14.962 10.7497 14.688 9.90797C15.2795 10.2608 15.8202 10.6928 16.295 11.1918C16.3264 11.2461 16.3642 11.2965 16.4075 11.3418C16.4732 11.4567 16.5033 11.5886 16.494 11.7207C16.4866 11.819 16.4589 11.9148 16.4127 12.0018C16.3664 12.0889 16.3026 12.1655 16.2253 12.2266ZM15.4762 7.84585C15.1068 7.46539 14.8918 6.96132 14.8728 6.43135C15.242 6.72197 15.6887 6.89705 16.157 6.9346C17.1521 7.03078 17.3525 7.91935 17.3865 8.41453C17.3865 8.42578 17.3865 8.43685 17.3874 8.44791C16.9436 8.46272 16.0655 8.40947 15.4762 7.84585ZM19.319 7.56122C18.9252 7.64219 18.5153 7.5758 18.1672 7.37466C18.3478 7.12003 18.6922 6.7966 19.1887 7.00416C19.4213 7.10404 19.6726 7.1527 19.9256 7.14685C19.7703 7.34352 19.5587 7.4881 19.319 7.56122Z" fill="#77B122"/>
</svg>
